<?xml version="1.0" encoding="utf-8"?>
<!DOCTYPE svg PUBLIC "-//W3C//DTD SVG 1.0//EN" "http://www.w3.org/TR/2001/REC-SVG-20010904/DTD/svg10.dtd">
<svg version="1.0" xmlns="http://www.w3.org/2000/svg" width="50px" height="50px" viewBox="0 0 45 45" preserveAspectRatio="xMidYMid meet">
 <g fill="#453f31">
  <path d="M23.25 42.09 c-3.78 -0.38 -7.78 -2.34 -10.40 -5.10 -5.80 -6.11 -6.32 -15.54 -1.22 -22.21 0.87 -1.14 2.52 -2.67 3.81 -3.53 6.26 -4.17 14.20 -3.88 20.23 0.73 1.82 1.39 3.66 3.71 4.71 5.94 1.28 2.74 1.87 6.26 1.51 9.09 -0.51 4.07 -1.95 7.17 -4.63 9.96 -3.60 3.77 -8.77 5.65 -14.01 5.12z m2.86 -1.59 c2.80 -0.34 4.80 -1.03 6.83 -2.34 3.85 -2.49 6.31 -6.16 7.12 -10.61 0.20 -1.08 0.23 -3.60 0.05 -4.55 -0.53 -2.89 -1.59 -5.21 -3.42 -7.45 -0.31 -0.38 -0.71 -0.83 -0.88 -0.99 l-0.31 -0.30 0 0.37 c0 0.42 -0.02 0.43 -1.05 0.74 l-0.60 0.18 0.01 0.40 c0.01 0.22 0.05 0.66 0.09 0.97 0.10 0.76 0 0.88 -0.76 0.88 -0.52 0 -0.60 -0.03 -0.75 -0.26 -0.10 -0.14 -0.19 -0.48 -0.22 -0.75 -0.05 -0.50 -0.05 -0.50 -0.24 -0.29 -0.27 0.29 -1.10 0.28 -1.39 -0.01 -0.33 -0.33 -0.22 -1 0.28 -1.75 0.22 -0.32 0.59 -0.92 0.82 -1.31 0.47 -0.82 0.67 -0.96 1.22 -0.91 0.21 0.02 0.39 0.03 0.39 0.02 0 -0.05 -1.62 -0.95 -2.15 -1.19 -1.02 -0.46 -2.55 -0.93 -3.74 -1.14 -3.42 -0.62 -7.01 0.12 -10.29 2.11 l-0.87 0.53 0.69 0.05 c0.63 0.05 0.70 0.08 0.97 0.40 0.16 0.19 0.29 0.46 0.29 0.61 0 0.20 0.07 0.30 0.31 0.39 0.50 0.21 0.62 0.49 0.57 1.36 -0.04 0.88 -0.10 0.95 -1.37 1.71 -0.57 0.35 -0.81 0.43 -1.19 0.43 -0.48 0 -0.48 0 -0.82 -0.57 -0.19 -0.32 -0.54 -0.91 -0.78 -1.31 -0.24 -0.40 -0.49 -0.86 -0.56 -1.03 l-0.13 -0.31 -0.49 0.59 c-0.27 0.32 -0.51 0.60 -0.54 0.63 -0.31 0.31 -1.26 1.79 -1.72 2.70 -1.27 2.49 -1.87 5.48 -1.58 7.91 0.38 3.27 1.49 5.93 3.48 8.40 1.78 2.20 4.42 4.03 7.16 4.94 1.16 0.39 1.68 0.51 3.06 0.70 1.25 0.16 1.51 0.17 2.51 0.05z m8.42 -26.92 c0.14 -0.02 0.06 -0.12 -0.32 -0.40 -0.28 -0.21 -0.52 -0.38 -0.53 -0.38 -0.02 0 -0.01 0.22 0 0.49 l0.04 0.49 0.31 -0.08 c0.18 -0.05 0.40 -0.10 0.50 -0.12z m-18.33 -0.63 c0 -0.03 -0.02 -0.05 -0.05 -0.05 -0.03 0 -0.05 0.02 -0.05 0.05 0 0.03 0.02 0.05 0.05 0.05 0.03 0 0.05 -0.02 0.05 -0.05z m17.30 -0.30 c0 -0.03 -0.02 -0.05 -0.05 -0.05 -0.03 0 -0.05 0.02 -0.05 0.05 0 0.03 0.02 0.05 0.05 0.05 0.03 0 0.05 -0.02 0.05 -0.05z"/>
  <path d="M22.10 39.30 c-1.24 -0.20 -1.40 -0.29 -1.40 -0.84 0 -0.48 0.66 -3.54 0.80 -3.71 0.17 -0.20 0.99 -0.20 1.28 0.01 0.28 0.19 0.28 0.63 0.02 1.94 -0.10 0.52 -0.18 0.95 -0.17 0.96 0.01 0 0.33 0.06 0.70 0.12 0.38 0.06 0.75 0.16 0.83 0.23 0.19 0.16 0.18 0.99 -0.02 1.27 -0.19 0.27 -0.44 0.27 -2.04 0.02z"/>
  <path d="M26.45 39.26 c-0.37 -0.16 -0.70 -0.52 -0.84 -0.88 -0.14 -0.38 -0.41 -2.08 -0.41 -2.62 0 -0.53 0.14 -0.67 0.75 -0.74 0.74 -0.08 0.90 0.10 1.05 1.15 0.18 1.31 0.46 1.79 0.80 1.38 0.10 -0.12 0.09 -0.35 -0.09 -1.18 -0.11 -0.57 -0.21 -1.12 -0.21 -1.23 0 -0.37 0.31 -0.54 0.97 -0.54 0.73 0 0.73 -0.01 1.03 1.68 0.20 1.07 0.21 1.31 0.11 1.77 -0.13 0.56 -0.55 1.06 -1.08 1.26 -0.36 0.13 -1.73 0.10 -2.08 -0.05z"/>
  <path d="M31.51 37.77 c-0.10 -0.13 -0.36 -0.67 -1.15 -2.40 -0.17 -0.37 -0.26 -0.75 -0.26 -1.06 l0 -0.49 0.84 -0.41 c0.74 -0.36 0.92 -0.41 1.55 -0.41 0.48 0 0.80 0.05 0.96 0.16 0.24 0.16 0.45 0.61 0.45 0.98 0 0.13 0.12 0.28 0.30 0.38 0.40 0.23 0.53 0.59 0.48 1.37 -0.04 0.58 -0.07 0.67 -0.36 0.90 -0.17 0.14 -0.67 0.45 -1.11 0.69 -0.84 0.44 -1.48 0.55 -1.70 0.29z"/>
  <path d="M16.53 37.24 c-0.24 -0.14 -0.54 -0.44 -0.68 -0.68 -0.22 -0.37 -0.25 -0.55 -0.25 -1.32 0 -1.06 0.20 -1.51 0.88 -1.99 0.41 -0.28 0.50 -0.30 1.30 -0.30 0.94 0 1.40 0.15 1.78 0.57 0.53 0.57 0.70 1.41 0.38 1.86 -0.21 0.30 -1.04 0.32 -1.34 0.02 -0.11 -0.11 -0.20 -0.24 -0.20 -0.30 0 -0.11 -0.40 -0.50 -0.52 -0.50 -0.15 0 -0.58 0.48 -0.58 0.65 0 0.28 0.38 0.55 0.78 0.55 0.61 0 0.82 0.22 0.82 0.85 0 0.72 -0.18 0.85 -1.20 0.85 -0.62 0 -0.82 -0.04 -1.17 -0.26z"/>
  <path d="M23.85 33.81 c-0.52 -0.13 -0.91 -0.39 -1.33 -0.86 l-0.40 -0.45 -3.33 0 c-1.84 0 -3.44 -0.03 -3.57 -0.06 -0.52 -0.14 -0.52 -0.15 -0.52 -6.72 0 -3.99 0.04 -6.19 0.10 -6.39 0.13 -0.37 0.46 -0.53 1.09 -0.53 0.35 0 0.56 0.07 0.81 0.25 0.52 0.38 0.70 0.34 0.70 -0.18 0 -0.63 0.29 -0.87 1.03 -0.87 l0.57 0 0 -0.34 c0 -0.19 0.09 -0.45 0.21 -0.60 0.18 -0.24 0.27 -0.26 0.88 -0.26 0.65 0 0.72 0.02 1.47 0.51 1.09 0.71 2.12 1.57 2.85 2.37 l0.61 0.68 0.81 -0.84 c0.97 -0.99 1.77 -1.65 2.77 -2.27 0.69 -0.42 0.79 -0.45 1.42 -0.45 0.66 0 0.69 0.01 0.88 0.33 0.11 0.17 0.20 0.44 0.20 0.60 0 0.26 0.01 0.27 0.58 0.27 0.71 0 0.89 0.15 0.98 0.83 0.08 0.53 0.18 0.57 0.59 0.25 0.21 -0.16 0.46 -0.23 0.90 -0.26 0.54 -0.04 0.65 -0.01 0.91 0.21 l0.29 0.25 0 6.37 0 6.37 -0.28 0.24 -0.28 0.24 -3.41 0 -3.40 0 -0.40 0.45 c-0.64 0.72 -1.04 0.88 -2.33 0.91 -0.60 0.02 -1.23 0 -1.40 -0.05z m1.25 -2.06 c0 -0.03 -0.02 -0.05 -0.05 -0.05 -0.03 0 -0.05 0.02 -0.05 0.05 0 0.03 0.02 0.05 0.05 0.05 0.03 0 0.05 -0.02 0.05 -0.05z m-6.55 -1.55 c-0.33 -0.10 -0.81 -0.25 -1.07 -0.33 l-0.48 -0.15 0 0.34 0 0.34 1.08 -0.01 1.07 -0.01 -0.60 -0.18z m14.45 -0.14 l0 -0.34 -0.77 0.25 c-0.43 0.14 -0.89 0.29 -1.03 0.33 -0.16 0.05 0.11 0.09 0.78 0.09 l1.02 0.01 0 -0.34z m-9.15 -7.31 c-0.04 -0.16 -0.64 -0.40 -3.36 -1.30 -1.82 -0.60 -3.35 -1.11 -3.40 -1.13 -0.14 -0.05 -0.12 6.61 0.02 6.92 0.14 0.29 0.08 0.27 2.59 1.06 1.07 0.34 2.45 0.79 3.05 0.99 l1.10 0.36 0.03 -3.35 c0.01 -1.84 0 -3.44 -0.03 -3.55z m6.18 5.66 c1.20 -0.39 2.24 -0.71 2.31 -0.71 0.07 0 0.25 -0.09 0.40 -0.21 l0.26 -0.20 0 -3.49 0 -3.48 -3.37 1.13 -3.38 1.13 -0.03 3.55 -0.02 3.55 0.82 -0.28 c0.46 -0.15 1.81 -0.60 3.01 -0.99z"/>
  <path d="M21.95 28.65 c-0.05 -0.02 -0.91 -0.29 -1.90 -0.60 -0.99 -0.32 -1.86 -0.63 -1.94 -0.70 -0.22 -0.21 -0.26 -1 -0.07 -1.30 0.14 -0.21 0.25 -0.25 0.64 -0.26 l0.47 -0.01 -0.45 -0.14 c-0.58 -0.18 -0.80 -0.45 -0.80 -0.98 0 -0.62 0.21 -0.86 0.78 -0.87 l0.47 -0.01 -0.45 -0.14 c-0.58 -0.18 -0.70 -0.36 -0.70 -1.01 0 -0.45 0.04 -0.55 0.25 -0.69 0.37 -0.24 0.94 -0.14 2.93 0.51 1.86 0.62 2.02 0.72 2.02 1.35 0 0.59 -0.21 0.79 -0.88 0.82 l-0.57 0.03 0.57 0.18 c0.65 0.20 0.88 0.45 0.88 0.97 0 0.60 -0.22 0.80 -0.88 0.81 l-0.57 0.01 0.59 0.18 c0.33 0.11 0.63 0.25 0.67 0.32 0.05 0.07 0.09 0.39 0.09 0.70 0 0.48 -0.04 0.59 -0.22 0.72 -0.20 0.14 -0.66 0.20 -0.93 0.11z m-1.05 -2.30 c0 -0.03 -0.02 -0.05 -0.05 -0.05 -0.03 0 -0.05 0.02 -0.05 0.05 0 0.03 0.02 0.05 0.05 0.05 0.03 0 0.05 -0.02 0.05 -0.05z m-0.60 -0.20 c0 -0.03 -0.02 -0.05 -0.05 -0.05 -0.03 0 -0.05 0.02 -0.05 0.05 0 0.03 0.02 0.05 0.05 0.05 0.03 0 0.05 -0.02 0.05 -0.05z m1.20 -1.60 c0 -0.03 -0.02 -0.05 -0.05 -0.05 -0.03 0 -0.05 0.02 -0.05 0.05 0 0.03 0.02 0.05 0.05 0.05 0.03 0 0.05 -0.02 0.05 -0.05z m-0.20 -0.10 c0 -0.03 -0.02 -0.05 -0.05 -0.05 -0.03 0 -0.05 0.02 -0.05 0.05 0 0.03 0.02 0.05 0.05 0.05 0.03 0 0.05 -0.02 0.05 -0.05z m-0.60 -0.20 c0 -0.03 -0.02 -0.05 -0.05 -0.05 -0.03 0 -0.05 0.02 -0.05 0.05 0 0.03 0.02 0.05 0.05 0.05 0.03 0 0.05 -0.02 0.05 -0.05z m-0.40 -0.10 c0 -0.03 -0.02 -0.05 -0.05 -0.05 -0.03 0 -0.05 0.02 -0.05 0.05 0 0.03 0.02 0.05 0.05 0.05 0.03 0 0.05 -0.02 0.05 -0.05z m-0.20 -0.10 c0 -0.03 -0.02 -0.05 -0.05 -0.05 -0.03 0 -0.05 0.02 -0.05 0.05 0 0.03 0.02 0.05 0.05 0.05 0.03 0 0.05 -0.02 0.05 -0.05z m-0.40 -0.10 c0 -0.03 -0.02 -0.05 -0.05 -0.05 -0.03 0 -0.05 0.02 -0.05 0.05 0 0.03 0.02 0.05 0.05 0.05 0.03 0 0.05 -0.02 0.05 -0.05z"/>
  <path d="M27.15 28.45 c-0.31 -0.30 -0.34 -0.92 -0.07 -1.25 0.10 -0.13 0.43 -0.31 0.73 -0.41 l0.54 -0.17 -0.59 -0.01 c-0.43 -0.01 -0.62 -0.06 -0.72 -0.18 -0.14 -0.19 -0.19 -1.01 -0.06 -1.19 0.10 -0.15 0.46 -0.33 0.96 -0.49 l0.41 -0.13 -0.62 -0.01 c-0.72 -0.01 -0.83 -0.12 -0.83 -0.83 0 -0.48 0.06 -0.60 0.36 -0.76 0.51 -0.27 3.64 -1.22 4.02 -1.22 0.57 0 0.82 0.26 0.82 0.84 0 0.55 -0.21 0.82 -0.80 1 l-0.45 0.14 0.52 0.01 c0.63 0.01 0.83 0.23 0.83 0.89 0 0.51 -0.25 0.79 -0.86 0.98 l-0.39 0.12 0.43 0.01 c0.55 0.01 0.82 0.27 0.82 0.79 0 0.52 -0.20 0.84 -0.60 0.99 -1.30 0.46 -3.60 1.13 -3.88 1.13 -0.22 0 -0.41 -0.08 -0.57 -0.25z m1.75 -2 c0 -0.03 -0.02 -0.05 -0.05 -0.05 -0.03 0 -0.05 0.02 -0.05 0.05 0 0.03 0.02 0.05 0.05 0.05 0.03 0 0.05 -0.02 0.05 -0.05z m0.40 -0.10 c0 -0.03 -0.02 -0.05 -0.05 -0.05 -0.03 0 -0.05 0.02 -0.05 0.05 0 0.03 0.02 0.05 0.05 0.05 0.03 0 0.05 -0.02 0.05 -0.05z m0.60 -0.20 c0 -0.03 -0.02 -0.05 -0.05 -0.05 -0.03 0 -0.05 0.02 -0.05 0.05 0 0.03 0.02 0.05 0.05 0.05 0.03 0 0.05 -0.02 0.05 -0.05z m0.60 -0.20 c0 -0.03 -0.02 -0.05 -0.05 -0.05 -0.03 0 -0.05 0.02 -0.05 0.05 0 0.03 0.02 0.05 0.05 0.05 0.03 0 0.05 -0.02 0.05 -0.05z m-1.90 -1.40 c0 -0.03 -0.02 -0.05 -0.05 -0.05 -0.03 0 -0.05 0.02 -0.05 0.05 0 0.03 0.02 0.05 0.05 0.05 0.03 0 0.05 -0.02 0.05 -0.05z m0.30 -0.10 c0 -0.03 -0.02 -0.05 -0.05 -0.05 -0.03 0 -0.05 0.02 -0.05 0.05 0 0.03 0.02 0.05 0.05 0.05 0.03 0 0.05 -0.02 0.05 -0.05z m0.30 -0.10 c0 -0.03 -0.02 -0.05 -0.05 -0.05 -0.03 0 -0.05 0.02 -0.05 0.05 0 0.03 0.02 0.05 0.05 0.05 0.03 0 0.05 -0.02 0.05 -0.05z m0.30 -0.10 c0 -0.03 -0.02 -0.05 -0.05 -0.05 -0.03 0 -0.05 0.02 -0.05 0.05 0 0.03 0.02 0.05 0.05 0.05 0.03 0 0.05 -0.02 0.05 -0.05z m0.37 -0.12 c-0.04 -0.03 -0.10 -0.03 -0.14 0 -0.03 0.04 0 0.07 0.07 0.07 0.07 0 0.10 -0.03 0.07 -0.07z m0.23 -0.08 c0 -0.03 -0.02 -0.05 -0.05 -0.05 -0.03 0 -0.05 0.02 -0.05 0.05 0 0.03 0.02 0.05 0.05 0.05 0.03 0 0.05 -0.02 0.05 -0.05z m0.37 -0.12 c-0.04 -0.03 -0.10 -0.03 -0.14 0 -0.03 0.04 0 0.07 0.07 0.07 0.07 0 0.10 -0.03 0.07 -0.07z m0.23 -0.08 c0 -0.03 -0.02 -0.05 -0.05 -0.05 -0.03 0 -0.05 0.02 -0.05 0.05 0 0.03 0.02 0.05 0.05 0.05 0.03 0 0.05 -0.02 0.05 -0.05z"/>
  <path d="M20.88 15.46 c-0.36 -0.15 -0.86 -0.63 -1.06 -1.01 -0.26 -0.47 -0.22 -1.88 0.06 -2.42 0.41 -0.78 1.08 -1.13 2.16 -1.13 1.52 0.01 2.36 0.87 2.36 2.42 0 0.94 -0.43 1.68 -1.22 2.09 -0.43 0.22 -1.85 0.26 -2.30 0.05z m1.46 -1.81 c0.32 -0.29 0.32 -0.42 0.04 -0.72 -0.27 -0.28 -0.48 -0.29 -0.76 -0.03 -0.28 0.27 -0.28 0.45 0.03 0.75 0.30 0.31 0.36 0.31 0.69 0z"/>
  <path d="M26.79 15.37 c-0.26 -0.14 -0.57 -0.42 -0.74 -0.68 -0.28 -0.42 -0.30 -0.49 -0.30 -1.44 0 -0.91 0.02 -1.03 0.26 -1.37 0.50 -0.73 1.04 -0.98 2.08 -0.98 0.93 0.01 1.52 0.30 2.01 1 0.23 0.32 0.25 0.45 0.25 1.37 0 0.96 -0.01 1.03 -0.30 1.44 -0.46 0.65 -1 0.89 -2 0.89 -0.66 0 -0.90 -0.04 -1.26 -0.23z m1.65 -1.78 c0.24 -0.28 0.25 -0.32 0.10 -0.54 -0.21 -0.33 -0.50 -0.40 -0.79 -0.21 -0.31 0.20 -0.32 0.52 -0.03 0.83 0.28 0.30 0.41 0.29 0.72 -0.08z"/>
 </g>
 <g fill="#f4e9dc">
  <path d="M23.30 40.75 c-2.67 -0.37 -4.68 -1.13 -6.90 -2.62 -6.47 -4.35 -8.75 -13.02 -5.22 -19.93 2.09 -4.11 5.70 -6.98 10.17 -8.09 1.95 -0.48 4.38 -0.56 6.36 -0.20 6.58 1.18 11.56 6.20 12.70 12.79 0.19 1.10 0.17 3.93 -0.04 5.11 -0.80 4.46 -3.27 8.15 -7.13 10.65 -2.03 1.31 -4.03 2 -6.83 2.34 -1.05 0.12 -1.89 0.11 -3.11 -0.05z m0.54 -1.77 c0.37 -0.52 0.15 -0.76 -0.86 -0.91 -0.40 -0.06 -0.74 -0.11 -0.76 -0.12 -0.02 -0.02 0.09 -0.62 0.24 -1.36 l0.27 -1.33 -0.23 -0.18 c-0.27 -0.22 -0.53 -0.23 -0.70 -0.03 -0.20 0.25 -0.81 3.34 -0.70 3.56 0.11 0.19 0.21 0.22 1.60 0.43 0.47 0.08 0.88 0.14 0.92 0.15 0.04 0 0.14 -0.09 0.22 -0.21z m4.51 -0.03 c0.45 -0.22 0.81 -0.63 0.93 -1.06 0.07 -0.27 0.05 -0.63 -0.10 -1.45 -0.25 -1.38 -0.33 -1.54 -0.71 -1.54 -0.17 0 -0.38 0.07 -0.47 0.15 -0.16 0.14 -0.16 0.21 0.02 1.03 0.10 0.48 0.17 1.07 0.16 1.32 -0.03 0.38 -0.07 0.47 -0.30 0.58 -0.38 0.18 -0.74 0.06 -0.91 -0.31 -0.08 -0.18 -0.20 -0.72 -0.27 -1.20 -0.10 -0.73 -0.16 -0.91 -0.35 -1.03 -0.25 -0.17 -0.71 -0.05 -0.81 0.20 -0.07 0.17 0.22 2.03 0.37 2.43 0.14 0.37 0.47 0.73 0.84 0.89 0.41 0.18 1.20 0.17 1.60 -0.01z m4.56 -1.77 c0.44 -0.24 0.94 -0.55 1.12 -0.69 0.29 -0.24 0.32 -0.32 0.32 -0.79 0 -0.44 -0.04 -0.55 -0.28 -0.76 -0.15 -0.13 -0.35 -0.24 -0.43 -0.24 -0.11 0 -0.13 -0.06 -0.09 -0.20 0.09 -0.30 -0.12 -0.86 -0.40 -1.04 -0.42 -0.27 -0.99 -0.20 -1.91 0.25 -0.96 0.47 -0.97 0.50 -0.58 1.36 1.08 2.37 1.17 2.53 1.36 2.53 0.05 0 0.45 -0.19 0.89 -0.42z m-14.53 -0.14 c0.26 -0.18 0.29 -0.56 0.06 -0.75 -0.09 -0.07 -0.31 -0.12 -0.50 -0.11 -0.91 0.06 -1.35 -0.98 -0.69 -1.64 0.31 -0.31 0.92 -0.33 1.23 -0.04 0.12 0.12 0.22 0.25 0.22 0.30 0 0.17 0.39 0.50 0.60 0.50 0.11 0 0.27 -0.11 0.36 -0.25 0.14 -0.22 0.15 -0.30 0.03 -0.56 -0.33 -0.82 -1 -1.24 -1.92 -1.23 -0.47 0.01 -0.66 0.06 -1 0.30 -1.20 0.85 -1.17 2.65 0.06 3.38 0.49 0.30 1.20 0.35 1.55 0.10z m8.09 -3.72 c0.22 -0.12 0.59 -0.42 0.81 -0.67 l0.40 -0.45 3.40 0 3.41 0 0.28 -0.24 0.28 -0.24 0 -6.07 0 -6.07 -0.29 -0.25 c-0.24 -0.20 -0.37 -0.24 -0.64 -0.19 -0.19 0.03 -0.42 0.12 -0.51 0.20 -0.19 0.17 -1.10 0.50 -1.18 0.42 -0.03 -0.03 -0.07 -0.28 -0.08 -0.56 -0.04 -0.69 -0.26 -0.93 -0.80 -0.88 -0.22 0.03 -0.48 0.08 -0.57 0.12 -0.15 0.07 -0.18 0.03 -0.18 -0.30 0 -0.22 -0.09 -0.54 -0.20 -0.71 -0.17 -0.28 -0.26 -0.33 -0.58 -0.33 -0.73 0 -2.49 1.25 -4.05 2.90 l-0.94 0.99 -0.77 -0.84 c-1.39 -1.53 -3.47 -3.05 -4.17 -3.05 -0.50 0 -0.79 0.35 -0.79 0.98 0 0.41 -0.01 0.44 -0.22 0.37 -0.96 -0.31 -1.38 -0.06 -1.38 0.82 0 0.29 -0.03 0.53 -0.07 0.53 -0.25 0 -1.08 -0.32 -1.30 -0.50 -0.44 -0.35 -1.05 -0.19 -1.23 0.33 -0.06 0.20 -0.10 2.30 -0.10 6.09 0 6.25 0 6.28 0.52 6.42 0.13 0.03 1.73 0.06 3.57 0.06 l3.33 0 0.40 0.45 c0.67 0.76 1.21 0.96 2.43 0.91 0.57 -0.03 0.93 -0.10 1.22 -0.24z m-9.06 -16.24 c1.13 -0.68 1.30 -0.86 1.36 -1.40 0.07 -0.58 -0.12 -0.91 -0.61 -1.09 -0.30 -0.11 -0.34 -0.16 -0.29 -0.39 0.07 -0.38 -0.52 -1 -0.96 -1 -0.45 0 -2.18 0.95 -2.28 1.25 -0.03 0.09 0.31 0.70 1.40 2.53 0.19 0.31 0.38 0.52 0.49 0.52 0.10 0 0.50 -0.19 0.89 -0.42z m16.18 0.28 c0.09 -0.10 0.09 -0.25 0.02 -0.53 -0.05 -0.21 -0.12 -0.63 -0.16 -0.94 -0.07 -0.64 -0.13 -0.59 1.10 -0.96 0.56 -0.17 0.60 -0.20 0.60 -0.48 0 -0.22 -0.07 -0.33 -0.26 -0.42 -0.22 -0.11 -0.38 -0.09 -1.10 0.12 -0.46 0.14 -0.87 0.24 -0.91 0.23 -0.04 -0.02 0.06 -0.24 0.23 -0.50 0.35 -0.53 0.33 -0.79 -0.07 -0.97 -0.37 -0.17 -0.57 -0.01 -1.05 0.82 -0.23 0.39 -0.59 0.97 -0.79 1.27 -0.51 0.75 -0.56 0.94 -0.31 1.19 0.39 0.39 0.65 0.28 1.11 -0.48 0.29 -0.49 0.35 -0.43 0.48 0.57 0.13 0.89 0.32 1.22 0.71 1.22 0.16 0 0.34 -0.06 0.40 -0.14z m-10.71 -2.25 c0.67 -0.35 1.22 -1.15 1.22 -1.79 0 -0.43 -0.22 -1 -0.53 -1.38 -0.93 -1.12 -2.72 -0.92 -3.39 0.39 -0.26 0.51 -0.28 1.38 -0.06 1.82 0.20 0.38 0.70 0.85 1.06 1.01 0.43 0.19 1.28 0.17 1.70 -0.05z m6.34 -0.16 c0.23 -0.17 0.52 -0.50 0.66 -0.75 0.20 -0.38 0.23 -0.55 0.19 -1.07 -0.06 -0.85 -0.41 -1.34 -1.22 -1.73 -0.91 -0.44 -1.92 -0.13 -2.54 0.78 -0.22 0.31 -0.26 0.48 -0.26 1.07 0 0.61 0.04 0.76 0.30 1.14 0.44 0.65 1.03 0.94 1.82 0.89 0.49 -0.03 0.71 -0.10 1.05 -0.33z"/>
  <path d="M32.32 36.15 c-0.11 -0.23 -0.09 -0.27 0.21 -0.45 0.45 -0.28 0.77 -0.26 0.77 0.03 0 0.17 -0.10 0.29 -0.37 0.42 -0.21 0.11 -0.41 0.21 -0.44 0.22 -0.03 0.02 -0.11 -0.08 -0.17 -0.22z"/>
  <path d="M31.77 34.93 c-0.16 -0.16 -0.05 -0.42 0.25 -0.56 0.36 -0.18 0.58 -0.13 0.58 0.14 0 0.31 -0.63 0.63 -0.83 0.42z"/>
  <path d="M24.43 31.91 c-0.32 -0.20 -0.59 -0.58 -0.49 -0.68 0.03 -0.03 0.19 0 0.37 0.06 0.40 0.14 1.03 0.14 1.52 0 0.22 -0.06 0.41 -0.08 0.44 -0.06 0.03 0.03 -0.10 0.22 -0.29 0.42 -0.43 0.47 -1.05 0.57 -1.55 0.26z"/>
  <path d="M16.70 29.95 c0 -0.73 0 -0.74 0.23 -0.65 0.12 0.05 0.69 0.23 1.27 0.41 0.58 0.17 1.50 0.46 2.05 0.64 l1 0.34 -2.27 0 -2.28 0.01 0 -0.75z"/>
  <path d="M30.79 30.05 c1.06 -0.35 2.07 -0.67 2.22 -0.70 l0.29 -0.07 0 0.71 0 0.71 -2.22 -0.01 -2.23 -0.01 1.94 -0.63z"/>
  <path d="M23.85 30.02 c-0.11 -0.02 -0.72 -0.21 -1.35 -0.42 -0.63 -0.21 -2.03 -0.66 -3.10 -1 -2.53 -0.80 -2.46 -0.77 -2.59 -1.08 -0.08 -0.19 -0.10 -1.45 -0.09 -3.99 l0.03 -3.72 3.65 1.22 c2.01 0.66 3.68 1.26 3.72 1.32 0.10 0.13 0.10 7.63 0.01 7.68 -0.05 0.02 -0.17 0.02 -0.28 -0.01z m-1.07 -2.06 c0.10 -0.49 -0.05 -0.64 -0.96 -0.91 -0.48 -0.15 -1.33 -0.42 -1.89 -0.61 -1.21 -0.41 -1.38 -0.41 -1.59 -0.10 -0.13 0.21 -0.14 0.29 -0.02 0.52 0.11 0.24 0.32 0.34 1.63 0.77 2.26 0.74 2.37 0.77 2.60 0.62 0.11 -0.07 0.22 -0.20 0.23 -0.29z m-0.02 -1.91 c0.15 -0.23 0.15 -0.27 0.01 -0.49 -0.12 -0.18 -0.57 -0.37 -2.01 -0.85 -1.02 -0.33 -1.94 -0.61 -2.05 -0.61 -0.11 0 -0.28 0.12 -0.38 0.26 -0.15 0.24 -0.15 0.29 -0.02 0.53 0.12 0.22 0.42 0.35 1.84 0.83 1.95 0.65 2.37 0.70 2.61 0.33z m0 -2 c0.15 -0.23 0.15 -0.27 0.01 -0.49 -0.13 -0.19 -0.52 -0.36 -1.74 -0.76 -2.11 -0.70 -2.23 -0.72 -2.50 -0.54 -0.25 0.16 -0.30 0.51 -0.10 0.77 0.06 0.09 0.55 0.30 1.07 0.46 0.52 0.16 1.27 0.40 1.65 0.54 0.96 0.34 1.40 0.34 1.61 0.02z"/>
  <path d="M25.92 26.19 l0.03 -3.91 3.68 -1.23 3.67 -1.23 0 3.88 0 3.89 -0.26 0.20 c-0.15 0.12 -0.33 0.21 -0.41 0.21 -0.08 0 -0.67 0.18 -1.32 0.39 -2.11 0.71 -5.23 1.71 -5.32 1.71 -0.05 0 -0.08 -1.62 -0.07 -3.91z m3.63 1.64 c0.77 -0.24 1.56 -0.50 1.75 -0.56 0.64 -0.23 0.75 -0.98 0.17 -1.12 -0.14 -0.04 -0.89 0.15 -1.92 0.49 -0.94 0.31 -1.75 0.56 -1.82 0.56 -0.13 0 -0.53 0.47 -0.53 0.62 0 0.05 0.11 0.20 0.25 0.34 0.19 0.19 0.31 0.23 0.48 0.18 0.12 -0.04 0.85 -0.27 1.62 -0.51z m0.14 -2.04 c1.84 -0.59 2 -0.67 2.14 -0.96 0.13 -0.28 -0.14 -0.73 -0.43 -0.73 -0.22 0 -3.11 0.91 -3.72 1.17 -0.43 0.18 -0.56 0.45 -0.37 0.79 0.19 0.36 0.59 0.31 2.38 -0.27z m0.09 -2.06 c1.83 -0.60 2.11 -0.78 1.97 -1.23 -0.15 -0.47 -0.42 -0.46 -2.11 0.09 -2.07 0.67 -2.33 0.79 -2.40 1.07 -0.09 0.36 0.12 0.64 0.48 0.64 0.17 0 1.10 -0.26 2.06 -0.57z"/>
  <path d="M21.70 19.80 c-0.25 -0.10 -0.82 -0.33 -1.27 -0.50 -0.63 -0.25 -0.83 -0.37 -0.83 -0.51 0 -0.11 0.03 -0.19 0.06 -0.19 0.12 0 2.10 1.02 2.34 1.21 0.30 0.23 0.28 0.22 -0.30 -0.01z"/>
  <path d="M28.11 19.76 c0.19 -0.13 0.77 -0.45 1.28 -0.71 0.74 -0.37 0.95 -0.44 1.02 -0.34 0.04 0.08 0.05 0.17 0.01 0.21 -0.08 0.08 -2.51 1.08 -2.61 1.08 -0.03 0 0.10 -0.11 0.30 -0.24z"/>
  <path d="M16.72 16.06 c-0.10 -0.22 -0.07 -0.27 0.30 -0.51 0.45 -0.30 0.68 -0.27 0.68 0.08 0 0.17 -0.11 0.29 -0.39 0.45 -0.48 0.27 -0.45 0.27 -0.59 -0.02z"/>
  <path d="M16.02 14.86 c-0.10 -0.23 -0.08 -0.27 0.24 -0.46 0.63 -0.39 0.92 0.06 0.31 0.48 -0.41 0.27 -0.41 0.27 -0.55 -0.02z"/>
  <path d="M21.44 14.05 c-0.83 -0.57 -0.23 -1.92 0.75 -1.70 1.07 0.23 0.91 1.85 -0.18 1.85 -0.20 0 -0.46 -0.07 -0.57 -0.15z"/>
  <path d="M27.42 13.97 c-0.70 -0.74 -0.07 -1.87 0.89 -1.58 0.69 0.21 0.90 0.94 0.43 1.50 -0.21 0.26 -0.33 0.31 -0.68 0.31 -0.31 0 -0.48 -0.06 -0.64 -0.23z"/>
 </g>
</svg>