<svg width="34" height="34" xmlns="http://www.w3.org/2000/svg" preserveAspectRatio="xMidYMid meet" version="1.0">
 <g>
  <title>Layer 1</title>
  <g id="svg_1" fill="#453f31">
   <path id="svg_2" d="m15.12352,33.77861c-3.78,-0.38 -7.78,-2.34 -10.4,-5.1c-5.8,-6.11 -6.32,-15.54 -1.22,-22.21c0.87,-1.14 2.52,-2.67 3.81,-3.53c6.26,-4.17 14.2,-3.88 20.23,0.73c1.82,1.39 3.66,3.71 4.71,5.94c1.28,2.74 1.87,6.26 1.51,9.09c-0.51,4.07 -1.95,7.17 -4.63,9.96c-3.6,3.77 -8.77,5.65 -14.01,5.12zm2.86,-1.59c2.8,-0.34 4.8,-1.03 6.83,-2.34c3.85,-2.49 6.31,-6.16 7.12,-10.61c0.2,-1.08 0.23,-3.6 0.05,-4.55c-0.53,-2.89 -1.59,-5.21 -3.42,-7.45c-0.31,-0.38 -0.71,-0.83 -0.88,-0.99l-0.31,-0.3l0,0.37c0,0.42 -0.02,0.43 -1.05,0.74l-0.6,0.18l0.01,0.4c0.01,0.22 0.05,0.66 0.09,0.97c0.1,0.76 0,0.88 -0.76,0.88c-0.52,0 -0.6,-0.03 -0.75,-0.26c-0.1,-0.14 -0.19,-0.48 -0.22,-0.75c-0.05,-0.5 -0.05,-0.5 -0.24,-0.29c-0.27,0.29 -1.1,0.28 -1.39,-0.01c-0.33,-0.33 -0.22,-1 0.28,-1.75c0.22,-0.32 0.59,-0.92 0.82,-1.31c0.47,-0.82 0.67,-0.96 1.22,-0.91c0.21,0.02 0.39,0.03 0.39,0.02c0,-0.05 -1.62,-0.95 -2.15,-1.19c-1.02,-0.46 -2.55,-0.93 -3.74,-1.14c-3.42,-0.62 -7.01,0.12 -10.29,2.11l-0.87,0.53l0.69,0.05c0.63,0.05 0.7,0.08 0.97,0.4c0.16,0.19 0.29,0.46 0.29,0.61c0,0.2 0.07,0.3 0.31,0.39c0.5,0.21 0.62,0.49 0.57,1.36c-0.04,0.88 -0.1,0.95 -1.37,1.71c-0.57,0.35 -0.81,0.43 -1.19,0.43c-0.48,0 -0.48,0 -0.82,-0.57c-0.19,-0.32 -0.54,-0.91 -0.78,-1.31c-0.24,-0.4 -0.49,-0.86 -0.56,-1.03l-0.13,-0.31l-0.49,0.59c-0.27,0.32 -0.51,0.6 -0.54,0.63c-0.31,0.31 -1.26,1.79 -1.72,2.7c-1.27,2.49 -1.87,5.48 -1.58,7.91c0.38,3.27 1.49,5.93 3.48,8.4c1.78,2.2 4.42,4.03 7.16,4.94c1.16,0.39 1.68,0.51 3.06,0.7c1.25,0.16 1.51,0.17 2.51,0.05zm8.42,-26.92c0.14,-0.02 0.06,-0.12 -0.32,-0.4c-0.28,-0.21 -0.52,-0.38 -0.53,-0.38c-0.02,0 -0.01,0.22 0,0.49l0.04,0.49l0.31,-0.08c0.18,-0.05 0.4,-0.1 0.5,-0.12zm-18.33,-0.63c0,-0.03 -0.02,-0.05 -0.05,-0.05c-0.03,0 -0.05,0.02 -0.05,0.05c0,0.03 0.02,0.05 0.05,0.05c0.03,0 0.05,-0.02 0.05,-0.05zm17.3,-0.3c0,-0.03 -0.02,-0.05 -0.05,-0.05c-0.03,0 -0.05,0.02 -0.05,0.05c0,0.03 0.02,0.05 0.05,0.05c0.03,0 0.05,-0.02 0.05,-0.05z"/>
   <path id="svg_3" d="m13.97352,30.98861c-1.24,-0.2 -1.4,-0.29 -1.4,-0.84c0,-0.48 0.66,-3.54 0.8,-3.71c0.17,-0.2 0.99,-0.2 1.28,0.01c0.28,0.19 0.28,0.63 0.02,1.94c-0.1,0.52 -0.18,0.95 -0.17,0.96c0.01,0 0.33,0.06 0.7,0.12c0.38,0.06 0.75,0.16 0.83,0.23c0.19,0.16 0.18,0.99 -0.02,1.27c-0.19,0.27 -0.44,0.27 -2.04,0.02z"/>
   <path id="svg_4" d="m18.32352,30.94861c-0.37,-0.16 -0.7,-0.52 -0.84,-0.88c-0.14,-0.38 -0.41,-2.08 -0.41,-2.62c0,-0.53 0.14,-0.67 0.75,-0.74c0.74,-0.08 0.9,0.1 1.05,1.15c0.18,1.31 0.46,1.79 0.8,1.38c0.1,-0.12 0.09,-0.35 -0.09,-1.18c-0.11,-0.57 -0.21,-1.12 -0.21,-1.23c0,-0.37 0.31,-0.54 0.97,-0.54c0.73,0 0.73,-0.01 1.03,1.68c0.2,1.07 0.21,1.31 0.11,1.77c-0.13,0.56 -0.55,1.06 -1.08,1.26c-0.36,0.13 -1.73,0.1 -2.08,-0.05z"/>
   <path id="svg_5" d="m23.38352,29.45861c-0.1,-0.13 -0.36,-0.67 -1.15,-2.4c-0.17,-0.37 -0.26,-0.75 -0.26,-1.06l0,-0.49l0.84,-0.41c0.74,-0.36 0.92,-0.41 1.55,-0.41c0.48,0 0.8,0.05 0.96,0.16c0.24,0.16 0.45,0.61 0.45,0.98c0,0.13 0.12,0.28 0.3,0.38c0.4,0.23 0.53,0.59 0.48,1.37c-0.04,0.58 -0.07,0.67 -0.36,0.9c-0.17,0.14 -0.67,0.45 -1.11,0.69c-0.84,0.44 -1.48,0.55 -1.7,0.29z"/>
   <path id="svg_6" d="m8.40352,28.92861c-0.24,-0.14 -0.54,-0.44 -0.68,-0.68c-0.22,-0.37 -0.25,-0.55 -0.25,-1.32c0,-1.06 0.2,-1.51 0.88,-1.99c0.41,-0.28 0.5,-0.3 1.3,-0.3c0.94,0 1.4,0.15 1.78,0.57c0.53,0.57 0.7,1.41 0.38,1.86c-0.21,0.3 -1.04,0.32 -1.34,0.02c-0.11,-0.11 -0.2,-0.24 -0.2,-0.3c0,-0.11 -0.4,-0.5 -0.52,-0.5c-0.15,0 -0.58,0.48 -0.58,0.65c0,0.28 0.38,0.55 0.78,0.55c0.61,0 0.82,0.22 0.82,0.85c0,0.72 -0.18,0.85 -1.2,0.85c-0.62,0 -0.82,-0.04 -1.17,-0.26z"/>
   <path id="svg_7" d="m15.72352,25.49861c-0.52,-0.13 -0.91,-0.39 -1.33,-0.86l-0.4,-0.45l-3.33,0c-1.84,0 -3.44,-0.03 -3.57,-0.06c-0.52,-0.14 -0.52,-0.15 -0.52,-6.72c0,-3.99 0.04,-6.19 0.1,-6.39c0.13,-0.37 0.46,-0.53 1.09,-0.53c0.35,0 0.56,0.07 0.81,0.25c0.52,0.38 0.7,0.34 0.7,-0.18c0,-0.63 0.29,-0.87 1.03,-0.87l0.57,0l0,-0.34c0,-0.19 0.09,-0.45 0.21,-0.6c0.18,-0.24 0.27,-0.26 0.88,-0.26c0.65,0 0.72,0.02 1.47,0.51c1.09,0.71 2.12,1.57 2.85,2.37l0.61,0.68l0.81,-0.84c0.97,-0.99 1.77,-1.65 2.77,-2.27c0.69,-0.42 0.79,-0.45 1.42,-0.45c0.66,0 0.69,0.01 0.88,0.33c0.11,0.17 0.2,0.44 0.2,0.6c0,0.26 0.01,0.27 0.58,0.27c0.71,0 0.89,0.15 0.98,0.83c0.08,0.53 0.18,0.57 0.59,0.25c0.21,-0.16 0.46,-0.23 0.9,-0.26c0.54,-0.04 0.65,-0.01 0.91,0.21l0.29,0.25l0,6.37l0,6.37l-0.28,0.24l-0.28,0.24l-3.41,0l-3.4,0l-0.4,0.45c-0.64,0.72 -1.04,0.88 -2.33,0.91c-0.6,0.02 -1.23,0 -1.4,-0.05zm1.25,-2.06c0,-0.03 -0.02,-0.05 -0.05,-0.05c-0.03,0 -0.05,0.02 -0.05,0.05c0,0.03 0.02,0.05 0.05,0.05c0.03,0 0.05,-0.02 0.05,-0.05zm-6.55,-1.55c-0.33,-0.1 -0.81,-0.25 -1.07,-0.33l-0.48,-0.15l0,0.34l0,0.34l1.08,-0.01l1.07,-0.01l-0.6,-0.18zm14.45,-0.14l0,-0.34l-0.77,0.25c-0.43,0.14 -0.89,0.29 -1.03,0.33c-0.16,0.05 0.11,0.09 0.78,0.09l1.02,0.01l0,-0.34zm-9.15,-7.31c-0.04,-0.16 -0.64,-0.4 -3.36,-1.3c-1.82,-0.6 -3.35,-1.11 -3.4,-1.13c-0.14,-0.05 -0.12,6.61 0.02,6.92c0.14,0.29 0.08,0.27 2.59,1.06c1.07,0.34 2.45,0.79 3.05,0.99l1.1,0.36l0.03,-3.35c0.01,-1.84 0,-3.44 -0.03,-3.55zm6.18,5.66c1.2,-0.39 2.24,-0.71 2.31,-0.71c0.07,0 0.25,-0.09 0.4,-0.21l0.26,-0.2l0,-3.49l0,-3.48l-3.37,1.13l-3.38,1.13l-0.03,3.55l-0.02,3.55l0.82,-0.28c0.46,-0.15 1.81,-0.6 3.01,-0.99z"/>
   <path id="svg_8" d="m13.82352,20.33861c-0.05,-0.02 -0.91,-0.29 -1.9,-0.6c-0.99,-0.32 -1.86,-0.63 -1.94,-0.7c-0.22,-0.21 -0.26,-1 -0.07,-1.3c0.14,-0.21 0.25,-0.25 0.64,-0.26l0.47,-0.01l-0.45,-0.14c-0.58,-0.18 -0.8,-0.45 -0.8,-0.98c0,-0.62 0.21,-0.86 0.78,-0.87l0.47,-0.01l-0.45,-0.14c-0.58,-0.18 -0.7,-0.36 -0.7,-1.01c0,-0.45 0.04,-0.55 0.25,-0.69c0.37,-0.24 0.94,-0.14 2.93,0.51c1.86,0.62 2.02,0.72 2.02,1.35c0,0.59 -0.21,0.79 -0.88,0.82l-0.57,0.03l0.57,0.18c0.65,0.2 0.88,0.45 0.88,0.97c0,0.6 -0.22,0.8 -0.88,0.81l-0.57,0.01l0.59,0.18c0.33,0.11 0.63,0.25 0.67,0.32c0.05,0.07 0.09,0.39 0.09,0.7c0,0.48 -0.04,0.59 -0.22,0.72c-0.2,0.14 -0.66,0.2 -0.93,0.11zm-1.05,-2.3c0,-0.03 -0.02,-0.05 -0.05,-0.05c-0.03,0 -0.05,0.02 -0.05,0.05c0,0.03 0.02,0.05 0.05,0.05c0.03,0 0.05,-0.02 0.05,-0.05zm-0.6,-0.2c0,-0.03 -0.02,-0.05 -0.05,-0.05c-0.03,0 -0.05,0.02 -0.05,0.05c0,0.03 0.02,0.05 0.05,0.05c0.03,0 0.05,-0.02 0.05,-0.05zm1.2,-1.6c0,-0.03 -0.02,-0.05 -0.05,-0.05c-0.03,0 -0.05,0.02 -0.05,0.05c0,0.03 0.02,0.05 0.05,0.05c0.03,0 0.05,-0.02 0.05,-0.05zm-0.2,-0.1c0,-0.03 -0.02,-0.05 -0.05,-0.05c-0.03,0 -0.05,0.02 -0.05,0.05c0,0.03 0.02,0.05 0.05,0.05c0.03,0 0.05,-0.02 0.05,-0.05zm-0.6,-0.2c0,-0.03 -0.02,-0.05 -0.05,-0.05c-0.03,0 -0.05,0.02 -0.05,0.05c0,0.03 0.02,0.05 0.05,0.05c0.03,0 0.05,-0.02 0.05,-0.05zm-0.4,-0.1c0,-0.03 -0.02,-0.05 -0.05,-0.05c-0.03,0 -0.05,0.02 -0.05,0.05c0,0.03 0.02,0.05 0.05,0.05c0.03,0 0.05,-0.02 0.05,-0.05zm-0.2,-0.1c0,-0.03 -0.02,-0.05 -0.05,-0.05c-0.03,0 -0.05,0.02 -0.05,0.05c0,0.03 0.02,0.05 0.05,0.05c0.03,0 0.05,-0.02 0.05,-0.05zm-0.4,-0.1c0,-0.03 -0.02,-0.05 -0.05,-0.05c-0.03,0 -0.05,0.02 -0.05,0.05c0,0.03 0.02,0.05 0.05,0.05c0.03,0 0.05,-0.02 0.05,-0.05z"/>
   <path id="svg_9" d="m19.02352,20.13861c-0.31,-0.3 -0.34,-0.92 -0.07,-1.25c0.1,-0.13 0.43,-0.31 0.73,-0.41l0.54,-0.17l-0.59,-0.01c-0.43,-0.01 -0.62,-0.06 -0.72,-0.18c-0.14,-0.19 -0.19,-1.01 -0.06,-1.19c0.1,-0.15 0.46,-0.33 0.96,-0.49l0.41,-0.13l-0.62,-0.01c-0.72,-0.01 -0.83,-0.12 -0.83,-0.83c0,-0.48 0.06,-0.6 0.36,-0.76c0.51,-0.27 3.64,-1.22 4.02,-1.22c0.57,0 0.82,0.26 0.82,0.84c0,0.55 -0.21,0.82 -0.8,1l-0.45,0.14l0.52,0.01c0.63,0.01 0.83,0.23 0.83,0.89c0,0.51 -0.25,0.79 -0.86,0.98l-0.39,0.12l0.43,0.01c0.55,0.01 0.82,0.27 0.82,0.79c0,0.52 -0.2,0.84 -0.6,0.99c-1.3,0.46 -3.6,1.13 -3.88,1.13c-0.22,0 -0.41,-0.08 -0.57,-0.25zm1.75,-2c0,-0.03 -0.02,-0.05 -0.05,-0.05c-0.03,0 -0.05,0.02 -0.05,0.05c0,0.03 0.02,0.05 0.05,0.05c0.03,0 0.05,-0.02 0.05,-0.05zm0.4,-0.1c0,-0.03 -0.02,-0.05 -0.05,-0.05c-0.03,0 -0.05,0.02 -0.05,0.05c0,0.03 0.02,0.05 0.05,0.05c0.03,0 0.05,-0.02 0.05,-0.05zm0.6,-0.2c0,-0.03 -0.02,-0.05 -0.05,-0.05c-0.03,0 -0.05,0.02 -0.05,0.05c0,0.03 0.02,0.05 0.05,0.05c0.03,0 0.05,-0.02 0.05,-0.05zm0.6,-0.2c0,-0.03 -0.02,-0.05 -0.05,-0.05c-0.03,0 -0.05,0.02 -0.05,0.05c0,0.03 0.02,0.05 0.05,0.05c0.03,0 0.05,-0.02 0.05,-0.05zm-1.9,-1.4c0,-0.03 -0.02,-0.05 -0.05,-0.05c-0.03,0 -0.05,0.02 -0.05,0.05c0,0.03 0.02,0.05 0.05,0.05c0.03,0 0.05,-0.02 0.05,-0.05zm0.3,-0.1c0,-0.03 -0.02,-0.05 -0.05,-0.05c-0.03,0 -0.05,0.02 -0.05,0.05c0,0.03 0.02,0.05 0.05,0.05c0.03,0 0.05,-0.02 0.05,-0.05zm0.3,-0.1c0,-0.03 -0.02,-0.05 -0.05,-0.05c-0.03,0 -0.05,0.02 -0.05,0.05c0,0.03 0.02,0.05 0.05,0.05c0.03,0 0.05,-0.02 0.05,-0.05zm0.3,-0.1c0,-0.03 -0.02,-0.05 -0.05,-0.05c-0.03,0 -0.05,0.02 -0.05,0.05c0,0.03 0.02,0.05 0.05,0.05c0.03,0 0.05,-0.02 0.05,-0.05zm0.37,-0.12c-0.04,-0.03 -0.1,-0.03 -0.14,0c-0.03,0.04 0,0.07 0.07,0.07c0.07,0 0.1,-0.03 0.07,-0.07zm0.23,-0.08c0,-0.03 -0.02,-0.05 -0.05,-0.05c-0.03,0 -0.05,0.02 -0.05,0.05c0,0.03 0.02,0.05 0.05,0.05c0.03,0 0.05,-0.02 0.05,-0.05zm0.37,-0.12c-0.04,-0.03 -0.1,-0.03 -0.14,0c-0.03,0.04 0,0.07 0.07,0.07c0.07,0 0.1,-0.03 0.07,-0.07zm0.23,-0.08c0,-0.03 -0.02,-0.05 -0.05,-0.05c-0.03,0 -0.05,0.02 -0.05,0.05c0,0.03 0.02,0.05 0.05,0.05c0.03,0 0.05,-0.02 0.05,-0.05z"/>
   <path id="svg_10" d="m12.75352,7.14861c-0.36,-0.15 -0.86,-0.63 -1.06,-1.01c-0.26,-0.47 -0.22,-1.88 0.06,-2.42c0.41,-0.78 1.08,-1.13 2.16,-1.13c1.52,0.01 2.36,0.87 2.36,2.42c0,0.94 -0.43,1.68 -1.22,2.09c-0.43,0.22 -1.85,0.26 -2.3,0.05zm1.46,-1.81c0.32,-0.29 0.32,-0.42 0.04,-0.72c-0.27,-0.28 -0.48,-0.29 -0.76,-0.03c-0.28,0.27 -0.28,0.45 0.03,0.75c0.3,0.31 0.36,0.31 0.69,0z"/>
   <path id="svg_11" d="m18.66352,7.05861c-0.26,-0.14 -0.57,-0.42 -0.74,-0.68c-0.28,-0.42 -0.3,-0.49 -0.3,-1.44c0,-0.91 0.02,-1.03 0.26,-1.37c0.5,-0.73 1.04,-0.98 2.08,-0.98c0.93,0.01 1.52,0.3 2.01,1c0.23,0.32 0.25,0.45 0.25,1.37c0,0.96 -0.01,1.03 -0.3,1.44c-0.46,0.65 -1,0.89 -2,0.89c-0.66,0 -0.9,-0.04 -1.26,-0.23zm1.65,-1.78c0.24,-0.28 0.25,-0.32 0.1,-0.54c-0.21,-0.33 -0.5,-0.4 -0.79,-0.21c-0.31,0.2 -0.32,0.52 -0.03,0.83c0.28,0.3 0.41,0.29 0.72,-0.08z"/>
  </g>
  <g id="svg_12" fill="#f4e9dc">
   <path id="svg_13" d="m15.17352,32.43861c-2.67,-0.37 -4.68,-1.13 -6.9,-2.62c-6.47,-4.35 -8.75,-13.02 -5.22,-19.93c2.09,-4.11 5.7,-6.98 10.17,-8.09c1.95,-0.48 4.38,-0.56 6.36,-0.2c6.58,1.18 11.56,6.2 12.7,12.79c0.19,1.1 0.17,3.93 -0.04,5.11c-0.8,4.46 -3.27,8.15 -7.13,10.65c-2.03,1.31 -4.03,2 -6.83,2.34c-1.05,0.12 -1.89,0.11 -3.11,-0.05zm0.54,-1.77c0.37,-0.52 0.15,-0.76 -0.86,-0.91c-0.4,-0.06 -0.74,-0.11 -0.76,-0.12c-0.02,-0.02 0.09,-0.62 0.24,-1.36l0.27,-1.33l-0.23,-0.18c-0.27,-0.22 -0.53,-0.23 -0.7,-0.03c-0.2,0.25 -0.81,3.34 -0.7,3.56c0.11,0.19 0.21,0.22 1.6,0.43c0.47,0.08 0.88,0.14 0.92,0.15c0.04,0 0.14,-0.09 0.22,-0.21zm4.51,-0.03c0.45,-0.22 0.81,-0.63 0.93,-1.06c0.07,-0.27 0.05,-0.63 -0.1,-1.45c-0.25,-1.38 -0.33,-1.54 -0.71,-1.54c-0.17,0 -0.38,0.07 -0.47,0.15c-0.16,0.14 -0.16,0.21 0.02,1.03c0.1,0.48 0.17,1.07 0.16,1.32c-0.03,0.38 -0.07,0.47 -0.3,0.58c-0.38,0.18 -0.74,0.06 -0.91,-0.31c-0.08,-0.18 -0.2,-0.72 -0.27,-1.2c-0.1,-0.73 -0.16,-0.91 -0.35,-1.03c-0.25,-0.17 -0.71,-0.05 -0.81,0.2c-0.07,0.17 0.22,2.03 0.37,2.43c0.14,0.37 0.47,0.73 0.84,0.89c0.41,0.18 1.2,0.17 1.6,-0.01zm4.56,-1.77c0.44,-0.24 0.94,-0.55 1.12,-0.69c0.29,-0.24 0.32,-0.32 0.32,-0.79c0,-0.44 -0.04,-0.55 -0.28,-0.76c-0.15,-0.13 -0.35,-0.24 -0.43,-0.24c-0.11,0 -0.13,-0.06 -0.09,-0.2c0.09,-0.3 -0.12,-0.86 -0.4,-1.04c-0.42,-0.27 -0.99,-0.2 -1.91,0.25c-0.96,0.47 -0.97,0.5 -0.58,1.36c1.08,2.37 1.17,2.53 1.36,2.53c0.05,0 0.45,-0.19 0.89,-0.42zm-14.53,-0.14c0.26,-0.18 0.29,-0.56 0.06,-0.75c-0.09,-0.07 -0.31,-0.12 -0.5,-0.11c-0.91,0.06 -1.35,-0.98 -0.69,-1.64c0.31,-0.31 0.92,-0.33 1.23,-0.04c0.12,0.12 0.22,0.25 0.22,0.3c0,0.17 0.39,0.5 0.6,0.5c0.11,0 0.27,-0.11 0.36,-0.25c0.14,-0.22 0.15,-0.3 0.03,-0.56c-0.33,-0.82 -1,-1.24 -1.92,-1.23c-0.47,0.01 -0.66,0.06 -1,0.3c-1.2,0.85 -1.17,2.65 0.06,3.38c0.49,0.3 1.2,0.35 1.55,0.1zm8.09,-3.72c0.22,-0.12 0.59,-0.42 0.81,-0.67l0.4,-0.45l3.4,0l3.41,0l0.28,-0.24l0.28,-0.24l0,-6.07l0,-6.07l-0.29,-0.25c-0.24,-0.2 -0.37,-0.24 -0.64,-0.19c-0.19,0.03 -0.42,0.12 -0.51,0.2c-0.19,0.17 -1.1,0.5 -1.18,0.42c-0.03,-0.03 -0.07,-0.28 -0.08,-0.56c-0.04,-0.69 -0.26,-0.93 -0.8,-0.88c-0.22,0.03 -0.48,0.08 -0.57,0.12c-0.15,0.07 -0.18,0.03 -0.18,-0.3c0,-0.22 -0.09,-0.54 -0.2,-0.71c-0.17,-0.28 -0.26,-0.33 -0.58,-0.33c-0.73,0 -2.49,1.25 -4.05,2.9l-0.94,0.99l-0.77,-0.84c-1.39,-1.53 -3.47,-3.05 -4.17,-3.05c-0.5,0 -0.79,0.35 -0.79,0.98c0,0.41 -0.01,0.44 -0.22,0.37c-0.96,-0.31 -1.38,-0.06 -1.38,0.82c0,0.29 -0.03,0.53 -0.07,0.53c-0.25,0 -1.08,-0.32 -1.3,-0.5c-0.44,-0.35 -1.05,-0.19 -1.23,0.33c-0.06,0.2 -0.1,2.3 -0.1,6.09c0,6.25 0,6.28 0.52,6.42c0.13,0.03 1.73,0.06 3.57,0.06l3.33,0l0.4,0.45c0.67,0.76 1.21,0.96 2.43,0.91c0.57,-0.03 0.93,-0.1 1.22,-0.24zm-9.06,-16.24c1.13,-0.68 1.3,-0.86 1.36,-1.4c0.07,-0.58 -0.12,-0.91 -0.61,-1.09c-0.3,-0.11 -0.34,-0.16 -0.29,-0.39c0.07,-0.38 -0.52,-1 -0.96,-1c-0.45,0 -2.18,0.95 -2.28,1.25c-0.03,0.09 0.31,0.7 1.4,2.53c0.19,0.31 0.38,0.52 0.49,0.52c0.1,0 0.5,-0.19 0.89,-0.42zm16.18,0.28c0.09,-0.1 0.09,-0.25 0.02,-0.53c-0.05,-0.21 -0.12,-0.63 -0.16,-0.94c-0.07,-0.64 -0.13,-0.59 1.1,-0.96c0.56,-0.17 0.6,-0.2 0.6,-0.48c0,-0.22 -0.07,-0.33 -0.26,-0.42c-0.22,-0.11 -0.38,-0.09 -1.1,0.12c-0.46,0.14 -0.87,0.24 -0.91,0.23c-0.04,-0.02 0.06,-0.24 0.23,-0.5c0.35,-0.53 0.33,-0.79 -0.07,-0.97c-0.37,-0.17 -0.57,-0.01 -1.05,0.82c-0.23,0.39 -0.59,0.97 -0.79,1.27c-0.51,0.75 -0.56,0.94 -0.31,1.19c0.39,0.39 0.65,0.28 1.11,-0.48c0.29,-0.49 0.35,-0.43 0.48,0.57c0.13,0.89 0.32,1.22 0.71,1.22c0.16,0 0.34,-0.06 0.4,-0.14zm-10.71,-2.25c0.67,-0.35 1.22,-1.15 1.22,-1.79c0,-0.43 -0.22,-1 -0.53,-1.38c-0.93,-1.12 -2.72,-0.92 -3.39,0.39c-0.26,0.51 -0.28,1.38 -0.06,1.82c0.2,0.38 0.7,0.85 1.06,1.01c0.43,0.19 1.28,0.17 1.7,-0.05zm6.34,-0.16c0.23,-0.17 0.52,-0.5 0.66,-0.75c0.2,-0.38 0.23,-0.55 0.19,-1.07c-0.06,-0.85 -0.41,-1.34 -1.22,-1.73c-0.91,-0.44 -1.92,-0.13 -2.54,0.78c-0.22,0.31 -0.26,0.48 -0.26,1.07c0,0.61 0.04,0.76 0.3,1.14c0.44,0.65 1.03,0.94 1.82,0.89c0.49,-0.03 0.71,-0.1 1.05,-0.33z"/>
   <path id="svg_14" d="m24.19352,27.83861c-0.11,-0.23 -0.09,-0.27 0.21,-0.45c0.45,-0.28 0.77,-0.26 0.77,0.03c0,0.17 -0.1,0.29 -0.37,0.42c-0.21,0.11 -0.41,0.21 -0.44,0.22c-0.03,0.02 -0.11,-0.08 -0.17,-0.22z"/>
   <path id="svg_15" d="m23.64352,26.61861c-0.16,-0.16 -0.05,-0.42 0.25,-0.56c0.36,-0.18 0.58,-0.13 0.58,0.14c0,0.31 -0.63,0.63 -0.83,0.42z"/>
   <path id="svg_16" d="m16.30352,23.59861c-0.32,-0.2 -0.59,-0.58 -0.49,-0.68c0.03,-0.03 0.19,0 0.37,0.06c0.4,0.14 1.03,0.14 1.52,0c0.22,-0.06 0.41,-0.08 0.44,-0.06c0.03,0.03 -0.1,0.22 -0.29,0.42c-0.43,0.47 -1.05,0.57 -1.55,0.26z"/>
   <path id="svg_17" d="m8.57352,21.63861c0,-0.73 0,-0.74 0.23,-0.65c0.12,0.05 0.69,0.23 1.27,0.41c0.58,0.17 1.5,0.46 2.05,0.64l1,0.34l-2.27,0l-2.28,0.01l0,-0.75z"/>
   <path id="svg_18" d="m22.66352,21.73861c1.06,-0.35 2.07,-0.67 2.22,-0.7l0.29,-0.07l0,0.71l0,0.71l-2.22,-0.01l-2.23,-0.01l1.94,-0.63z"/>
   <path id="svg_19" d="m15.72352,21.70861c-0.11,-0.02 -0.72,-0.21 -1.35,-0.42c-0.63,-0.21 -2.03,-0.66 -3.1,-1c-2.53,-0.8 -2.46,-0.77 -2.59,-1.08c-0.08,-0.19 -0.1,-1.45 -0.09,-3.99l0.03,-3.72l3.65,1.22c2.01,0.66 3.68,1.26 3.72,1.32c0.1,0.13 0.1,7.63 0.01,7.68c-0.05,0.02 -0.17,0.02 -0.28,-0.01zm-1.07,-2.06c0.1,-0.49 -0.05,-0.64 -0.96,-0.91c-0.48,-0.15 -1.33,-0.42 -1.89,-0.61c-1.21,-0.41 -1.38,-0.41 -1.59,-0.1c-0.13,0.21 -0.14,0.29 -0.02,0.52c0.11,0.24 0.32,0.34 1.63,0.77c2.26,0.74 2.37,0.77 2.6,0.62c0.11,-0.07 0.22,-0.2 0.23,-0.29zm-0.02,-1.91c0.15,-0.23 0.15,-0.27 0.01,-0.49c-0.12,-0.18 -0.57,-0.37 -2.01,-0.85c-1.02,-0.33 -1.94,-0.61 -2.05,-0.61c-0.11,0 -0.28,0.12 -0.38,0.26c-0.15,0.24 -0.15,0.29 -0.02,0.53c0.12,0.22 0.42,0.35 1.84,0.83c1.95,0.65 2.37,0.7 2.61,0.33zm0,-2c0.15,-0.23 0.15,-0.27 0.01,-0.49c-0.13,-0.19 -0.52,-0.36 -1.74,-0.76c-2.11,-0.7 -2.23,-0.72 -2.5,-0.54c-0.25,0.16 -0.3,0.51 -0.1,0.77c0.06,0.09 0.55,0.3 1.07,0.46c0.52,0.16 1.27,0.4 1.65,0.54c0.96,0.34 1.4,0.34 1.61,0.02z"/>
   <path id="svg_20" d="m17.79352,17.87861l0.03,-3.91l3.68,-1.23l3.67,-1.23l0,3.88l0,3.89l-0.26,0.2c-0.15,0.12 -0.33,0.21 -0.41,0.21c-0.08,0 -0.67,0.18 -1.32,0.39c-2.11,0.71 -5.23,1.71 -5.32,1.71c-0.05,0 -0.08,-1.62 -0.07,-3.91zm3.63,1.64c0.77,-0.24 1.56,-0.5 1.75,-0.56c0.64,-0.23 0.75,-0.98 0.17,-1.12c-0.14,-0.04 -0.89,0.15 -1.92,0.49c-0.94,0.31 -1.75,0.56 -1.82,0.56c-0.13,0 -0.53,0.47 -0.53,0.62c0,0.05 0.11,0.2 0.25,0.34c0.19,0.19 0.31,0.23 0.48,0.18c0.12,-0.04 0.85,-0.27 1.62,-0.51zm0.14,-2.04c1.84,-0.59 2,-0.67 2.14,-0.96c0.13,-0.28 -0.14,-0.73 -0.43,-0.73c-0.22,0 -3.11,0.91 -3.72,1.17c-0.43,0.18 -0.56,0.45 -0.37,0.79c0.19,0.36 0.59,0.31 2.38,-0.27zm0.09,-2.06c1.83,-0.6 2.11,-0.78 1.97,-1.23c-0.15,-0.47 -0.42,-0.46 -2.11,0.09c-2.07,0.67 -2.33,0.79 -2.4,1.07c-0.09,0.36 0.12,0.64 0.48,0.64c0.17,0 1.1,-0.26 2.06,-0.57z"/>
   <path id="svg_21" d="m13.57352,11.48861c-0.25,-0.1 -0.82,-0.33 -1.27,-0.5c-0.63,-0.25 -0.83,-0.37 -0.83,-0.51c0,-0.11 0.03,-0.19 0.06,-0.19c0.12,0 2.1,1.02 2.34,1.21c0.3,0.23 0.28,0.22 -0.3,-0.01z"/>
   <path id="svg_22" d="m19.98352,11.44861c0.19,-0.13 0.77,-0.45 1.28,-0.71c0.74,-0.37 0.95,-0.44 1.02,-0.34c0.04,0.08 0.05,0.17 0.01,0.21c-0.08,0.08 -2.51,1.08 -2.61,1.08c-0.03,0 0.1,-0.11 0.3,-0.24z"/>
   <path id="svg_23" d="m8.59352,7.74861c-0.1,-0.22 -0.07,-0.27 0.3,-0.51c0.45,-0.3 0.68,-0.27 0.68,0.08c0,0.17 -0.11,0.29 -0.39,0.45c-0.48,0.27 -0.45,0.27 -0.59,-0.02z"/>
   <path id="svg_24" d="m7.89352,6.54861c-0.1,-0.23 -0.08,-0.27 0.24,-0.46c0.63,-0.39 0.92,0.06 0.31,0.48c-0.41,0.27 -0.41,0.27 -0.55,-0.02z"/>
   <path id="svg_25" d="m13.31352,5.73861c-0.83,-0.57 -0.23,-1.92 0.75,-1.7c1.07,0.23 0.91,1.85 -0.18,1.85c-0.2,0 -0.46,-0.07 -0.57,-0.15z"/>
   <path id="svg_26" d="m19.29352,5.65861c-0.7,-0.74 -0.07,-1.87 0.89,-1.58c0.69,0.21 0.9,0.94 0.43,1.5c-0.21,0.26 -0.33,0.31 -0.68,0.31c-0.31,0 -0.48,-0.06 -0.64,-0.23z"/>
  </g>
 </g>
</svg>